<svg xmlns="http://www.w3.org/2000/svg" xmlns:xlink="http://www.w3.org/1999/xlink" width="1080" height="1080" viewBox="0 0 1080 1080">
  <defs>
    <clipPath id="clip-path">
      <rect width="1080" height="1080" fill="none"/>
    </clipPath>
    <clipPath id="clip-path-2">
      <circle id="Ellipse_22" data-name="Ellipse 22" cx="540" cy="540" r="540" stroke="#707070" stroke-width="1"/>
    </clipPath>
    <clipPath id="clip-grid">
      <rect width="1080" height="1080"/>
    </clipPath>
  </defs>
  <g id="grid" clip-path="url(#clip-grid)">
    <g id="Repeat_Grid_1" data-name="Repeat Grid 1" clip-path="url(#clip-path)">
      <g>
        <rect id="Rectangle_1609" data-name="Rectangle 1609" width="90" height="90" fill="#e6e6e6"/>
        <rect id="Rectangle_1611" data-name="Rectangle 1611" width="90" height="90" transform="translate(90 90)" fill="#e6e6e6"/>
        <rect id="Rectangle_1610" data-name="Rectangle 1610" width="90" height="90" transform="translate(90)" fill="gray"/>
        <rect id="Rectangle_1612" data-name="Rectangle 1612" width="90" height="90" transform="translate(0 90)" fill="gray"/>
      </g>
      <g transform="translate(180)">
        <rect id="Rectangle_1609-2" data-name="Rectangle 1609" width="90" height="90" fill="#e6e6e6"/>
        <rect id="Rectangle_1611-2" data-name="Rectangle 1611" width="90" height="90" transform="translate(90 90)" fill="#e6e6e6"/>
        <rect id="Rectangle_1610-2" data-name="Rectangle 1610" width="90" height="90" transform="translate(90)" fill="gray"/>
        <rect id="Rectangle_1612-2" data-name="Rectangle 1612" width="90" height="90" transform="translate(0 90)" fill="gray"/>
      </g>
      <g transform="translate(360)">
        <rect id="Rectangle_1609-3" data-name="Rectangle 1609" width="90" height="90" fill="#e6e6e6"/>
        <rect id="Rectangle_1611-3" data-name="Rectangle 1611" width="90" height="90" transform="translate(90 90)" fill="#e6e6e6"/>
        <rect id="Rectangle_1610-3" data-name="Rectangle 1610" width="90" height="90" transform="translate(90)" fill="gray"/>
        <rect id="Rectangle_1612-3" data-name="Rectangle 1612" width="90" height="90" transform="translate(0 90)" fill="gray"/>
      </g>
      <g transform="translate(540)">
        <rect id="Rectangle_1609-4" data-name="Rectangle 1609" width="90" height="90" fill="#e6e6e6"/>
        <rect id="Rectangle_1611-4" data-name="Rectangle 1611" width="90" height="90" transform="translate(90 90)" fill="#e6e6e6"/>
        <rect id="Rectangle_1610-4" data-name="Rectangle 1610" width="90" height="90" transform="translate(90)" fill="gray"/>
        <rect id="Rectangle_1612-4" data-name="Rectangle 1612" width="90" height="90" transform="translate(0 90)" fill="gray"/>
      </g>
      <g transform="translate(720)">
        <rect id="Rectangle_1609-5" data-name="Rectangle 1609" width="90" height="90" fill="#e6e6e6"/>
        <rect id="Rectangle_1611-5" data-name="Rectangle 1611" width="90" height="90" transform="translate(90 90)" fill="#e6e6e6"/>
        <rect id="Rectangle_1610-5" data-name="Rectangle 1610" width="90" height="90" transform="translate(90)" fill="gray"/>
        <rect id="Rectangle_1612-5" data-name="Rectangle 1612" width="90" height="90" transform="translate(0 90)" fill="gray"/>
      </g>
      <g transform="translate(900)">
        <rect id="Rectangle_1609-6" data-name="Rectangle 1609" width="90" height="90" fill="#e6e6e6"/>
        <rect id="Rectangle_1611-6" data-name="Rectangle 1611" width="90" height="90" transform="translate(90 90)" fill="#e6e6e6"/>
        <rect id="Rectangle_1610-6" data-name="Rectangle 1610" width="90" height="90" transform="translate(90)" fill="gray"/>
        <rect id="Rectangle_1612-6" data-name="Rectangle 1612" width="90" height="90" transform="translate(0 90)" fill="gray"/>
      </g>
      <g transform="translate(0 180)">
        <rect id="Rectangle_1609-7" data-name="Rectangle 1609" width="90" height="90" fill="#e6e6e6"/>
        <rect id="Rectangle_1611-7" data-name="Rectangle 1611" width="90" height="90" transform="translate(90 90)" fill="#e6e6e6"/>
        <rect id="Rectangle_1610-7" data-name="Rectangle 1610" width="90" height="90" transform="translate(90)" fill="gray"/>
        <rect id="Rectangle_1612-7" data-name="Rectangle 1612" width="90" height="90" transform="translate(0 90)" fill="gray"/>
      </g>
      <g transform="translate(180 180)">
        <rect id="Rectangle_1609-8" data-name="Rectangle 1609" width="90" height="90" fill="#e6e6e6"/>
        <rect id="Rectangle_1611-8" data-name="Rectangle 1611" width="90" height="90" transform="translate(90 90)" fill="#e6e6e6"/>
        <rect id="Rectangle_1610-8" data-name="Rectangle 1610" width="90" height="90" transform="translate(90)" fill="gray"/>
        <rect id="Rectangle_1612-8" data-name="Rectangle 1612" width="90" height="90" transform="translate(0 90)" fill="gray"/>
      </g>
      <g transform="translate(360 180)">
        <rect id="Rectangle_1609-9" data-name="Rectangle 1609" width="90" height="90" fill="#e6e6e6"/>
        <rect id="Rectangle_1611-9" data-name="Rectangle 1611" width="90" height="90" transform="translate(90 90)" fill="#e6e6e6"/>
        <rect id="Rectangle_1610-9" data-name="Rectangle 1610" width="90" height="90" transform="translate(90)" fill="gray"/>
        <rect id="Rectangle_1612-9" data-name="Rectangle 1612" width="90" height="90" transform="translate(0 90)" fill="gray"/>
      </g>
      <g transform="translate(540 180)">
        <rect id="Rectangle_1609-10" data-name="Rectangle 1609" width="90" height="90" fill="#e6e6e6"/>
        <rect id="Rectangle_1611-10" data-name="Rectangle 1611" width="90" height="90" transform="translate(90 90)" fill="#e6e6e6"/>
        <rect id="Rectangle_1610-10" data-name="Rectangle 1610" width="90" height="90" transform="translate(90)" fill="gray"/>
        <rect id="Rectangle_1612-10" data-name="Rectangle 1612" width="90" height="90" transform="translate(0 90)" fill="gray"/>
      </g>
      <g transform="translate(720 180)">
        <rect id="Rectangle_1609-11" data-name="Rectangle 1609" width="90" height="90" fill="#e6e6e6"/>
        <rect id="Rectangle_1611-11" data-name="Rectangle 1611" width="90" height="90" transform="translate(90 90)" fill="#e6e6e6"/>
        <rect id="Rectangle_1610-11" data-name="Rectangle 1610" width="90" height="90" transform="translate(90)" fill="gray"/>
        <rect id="Rectangle_1612-11" data-name="Rectangle 1612" width="90" height="90" transform="translate(0 90)" fill="gray"/>
      </g>
      <g transform="translate(900 180)">
        <rect id="Rectangle_1609-12" data-name="Rectangle 1609" width="90" height="90" fill="#e6e6e6"/>
        <rect id="Rectangle_1611-12" data-name="Rectangle 1611" width="90" height="90" transform="translate(90 90)" fill="#e6e6e6"/>
        <rect id="Rectangle_1610-12" data-name="Rectangle 1610" width="90" height="90" transform="translate(90)" fill="gray"/>
        <rect id="Rectangle_1612-12" data-name="Rectangle 1612" width="90" height="90" transform="translate(0 90)" fill="gray"/>
      </g>
      <g transform="translate(0 360)">
        <rect id="Rectangle_1609-13" data-name="Rectangle 1609" width="90" height="90" fill="#e6e6e6"/>
        <rect id="Rectangle_1611-13" data-name="Rectangle 1611" width="90" height="90" transform="translate(90 90)" fill="#e6e6e6"/>
        <rect id="Rectangle_1610-13" data-name="Rectangle 1610" width="90" height="90" transform="translate(90)" fill="gray"/>
        <rect id="Rectangle_1612-13" data-name="Rectangle 1612" width="90" height="90" transform="translate(0 90)" fill="gray"/>
      </g>
      <g transform="translate(180 360)">
        <rect id="Rectangle_1609-14" data-name="Rectangle 1609" width="90" height="90" fill="#e6e6e6"/>
        <rect id="Rectangle_1611-14" data-name="Rectangle 1611" width="90" height="90" transform="translate(90 90)" fill="#e6e6e6"/>
        <rect id="Rectangle_1610-14" data-name="Rectangle 1610" width="90" height="90" transform="translate(90)" fill="gray"/>
        <rect id="Rectangle_1612-14" data-name="Rectangle 1612" width="90" height="90" transform="translate(0 90)" fill="gray"/>
      </g>
      <g transform="translate(360 360)">
        <rect id="Rectangle_1609-15" data-name="Rectangle 1609" width="90" height="90" fill="#e6e6e6"/>
        <rect id="Rectangle_1611-15" data-name="Rectangle 1611" width="90" height="90" transform="translate(90 90)" fill="#e6e6e6"/>
        <rect id="Rectangle_1610-15" data-name="Rectangle 1610" width="90" height="90" transform="translate(90)" fill="gray"/>
        <rect id="Rectangle_1612-15" data-name="Rectangle 1612" width="90" height="90" transform="translate(0 90)" fill="gray"/>
      </g>
      <g transform="translate(540 360)">
        <rect id="Rectangle_1609-16" data-name="Rectangle 1609" width="90" height="90" fill="#e6e6e6"/>
        <rect id="Rectangle_1611-16" data-name="Rectangle 1611" width="90" height="90" transform="translate(90 90)" fill="#e6e6e6"/>
        <rect id="Rectangle_1610-16" data-name="Rectangle 1610" width="90" height="90" transform="translate(90)" fill="gray"/>
        <rect id="Rectangle_1612-16" data-name="Rectangle 1612" width="90" height="90" transform="translate(0 90)" fill="gray"/>
      </g>
      <g transform="translate(720 360)">
        <rect id="Rectangle_1609-17" data-name="Rectangle 1609" width="90" height="90" fill="#e6e6e6"/>
        <rect id="Rectangle_1611-17" data-name="Rectangle 1611" width="90" height="90" transform="translate(90 90)" fill="#e6e6e6"/>
        <rect id="Rectangle_1610-17" data-name="Rectangle 1610" width="90" height="90" transform="translate(90)" fill="gray"/>
        <rect id="Rectangle_1612-17" data-name="Rectangle 1612" width="90" height="90" transform="translate(0 90)" fill="gray"/>
      </g>
      <g transform="translate(900 360)">
        <rect id="Rectangle_1609-18" data-name="Rectangle 1609" width="90" height="90" fill="#e6e6e6"/>
        <rect id="Rectangle_1611-18" data-name="Rectangle 1611" width="90" height="90" transform="translate(90 90)" fill="#e6e6e6"/>
        <rect id="Rectangle_1610-18" data-name="Rectangle 1610" width="90" height="90" transform="translate(90)" fill="gray"/>
        <rect id="Rectangle_1612-18" data-name="Rectangle 1612" width="90" height="90" transform="translate(0 90)" fill="gray"/>
      </g>
      <g transform="translate(0 540)">
        <rect id="Rectangle_1609-19" data-name="Rectangle 1609" width="90" height="90" fill="#e6e6e6"/>
        <rect id="Rectangle_1611-19" data-name="Rectangle 1611" width="90" height="90" transform="translate(90 90)" fill="#e6e6e6"/>
        <rect id="Rectangle_1610-19" data-name="Rectangle 1610" width="90" height="90" transform="translate(90)" fill="gray"/>
        <rect id="Rectangle_1612-19" data-name="Rectangle 1612" width="90" height="90" transform="translate(0 90)" fill="gray"/>
      </g>
      <g transform="translate(180 540)">
        <rect id="Rectangle_1609-20" data-name="Rectangle 1609" width="90" height="90" fill="#e6e6e6"/>
        <rect id="Rectangle_1611-20" data-name="Rectangle 1611" width="90" height="90" transform="translate(90 90)" fill="#e6e6e6"/>
        <rect id="Rectangle_1610-20" data-name="Rectangle 1610" width="90" height="90" transform="translate(90)" fill="gray"/>
        <rect id="Rectangle_1612-20" data-name="Rectangle 1612" width="90" height="90" transform="translate(0 90)" fill="gray"/>
      </g>
      <g transform="translate(360 540)">
        <rect id="Rectangle_1609-21" data-name="Rectangle 1609" width="90" height="90" fill="#e6e6e6"/>
        <rect id="Rectangle_1611-21" data-name="Rectangle 1611" width="90" height="90" transform="translate(90 90)" fill="#e6e6e6"/>
        <rect id="Rectangle_1610-21" data-name="Rectangle 1610" width="90" height="90" transform="translate(90)" fill="gray"/>
        <rect id="Rectangle_1612-21" data-name="Rectangle 1612" width="90" height="90" transform="translate(0 90)" fill="gray"/>
      </g>
      <g transform="translate(540 540)">
        <rect id="Rectangle_1609-22" data-name="Rectangle 1609" width="90" height="90" fill="#e6e6e6"/>
        <rect id="Rectangle_1611-22" data-name="Rectangle 1611" width="90" height="90" transform="translate(90 90)" fill="#e6e6e6"/>
        <rect id="Rectangle_1610-22" data-name="Rectangle 1610" width="90" height="90" transform="translate(90)" fill="gray"/>
        <rect id="Rectangle_1612-22" data-name="Rectangle 1612" width="90" height="90" transform="translate(0 90)" fill="gray"/>
      </g>
      <g transform="translate(720 540)">
        <rect id="Rectangle_1609-23" data-name="Rectangle 1609" width="90" height="90" fill="#e6e6e6"/>
        <rect id="Rectangle_1611-23" data-name="Rectangle 1611" width="90" height="90" transform="translate(90 90)" fill="#e6e6e6"/>
        <rect id="Rectangle_1610-23" data-name="Rectangle 1610" width="90" height="90" transform="translate(90)" fill="gray"/>
        <rect id="Rectangle_1612-23" data-name="Rectangle 1612" width="90" height="90" transform="translate(0 90)" fill="gray"/>
      </g>
      <g transform="translate(900 540)">
        <rect id="Rectangle_1609-24" data-name="Rectangle 1609" width="90" height="90" fill="#e6e6e6"/>
        <rect id="Rectangle_1611-24" data-name="Rectangle 1611" width="90" height="90" transform="translate(90 90)" fill="#e6e6e6"/>
        <rect id="Rectangle_1610-24" data-name="Rectangle 1610" width="90" height="90" transform="translate(90)" fill="gray"/>
        <rect id="Rectangle_1612-24" data-name="Rectangle 1612" width="90" height="90" transform="translate(0 90)" fill="gray"/>
      </g>
      <g transform="translate(0 720)">
        <rect id="Rectangle_1609-25" data-name="Rectangle 1609" width="90" height="90" fill="#e6e6e6"/>
        <rect id="Rectangle_1611-25" data-name="Rectangle 1611" width="90" height="90" transform="translate(90 90)" fill="#e6e6e6"/>
        <rect id="Rectangle_1610-25" data-name="Rectangle 1610" width="90" height="90" transform="translate(90)" fill="gray"/>
        <rect id="Rectangle_1612-25" data-name="Rectangle 1612" width="90" height="90" transform="translate(0 90)" fill="gray"/>
      </g>
      <g transform="translate(180 720)">
        <rect id="Rectangle_1609-26" data-name="Rectangle 1609" width="90" height="90" fill="#e6e6e6"/>
        <rect id="Rectangle_1611-26" data-name="Rectangle 1611" width="90" height="90" transform="translate(90 90)" fill="#e6e6e6"/>
        <rect id="Rectangle_1610-26" data-name="Rectangle 1610" width="90" height="90" transform="translate(90)" fill="gray"/>
        <rect id="Rectangle_1612-26" data-name="Rectangle 1612" width="90" height="90" transform="translate(0 90)" fill="gray"/>
      </g>
      <g transform="translate(360 720)">
        <rect id="Rectangle_1609-27" data-name="Rectangle 1609" width="90" height="90" fill="#e6e6e6"/>
        <rect id="Rectangle_1611-27" data-name="Rectangle 1611" width="90" height="90" transform="translate(90 90)" fill="#e6e6e6"/>
        <rect id="Rectangle_1610-27" data-name="Rectangle 1610" width="90" height="90" transform="translate(90)" fill="gray"/>
        <rect id="Rectangle_1612-27" data-name="Rectangle 1612" width="90" height="90" transform="translate(0 90)" fill="gray"/>
      </g>
      <g transform="translate(540 720)">
        <rect id="Rectangle_1609-28" data-name="Rectangle 1609" width="90" height="90" fill="#e6e6e6"/>
        <rect id="Rectangle_1611-28" data-name="Rectangle 1611" width="90" height="90" transform="translate(90 90)" fill="#e6e6e6"/>
        <rect id="Rectangle_1610-28" data-name="Rectangle 1610" width="90" height="90" transform="translate(90)" fill="gray"/>
        <rect id="Rectangle_1612-28" data-name="Rectangle 1612" width="90" height="90" transform="translate(0 90)" fill="gray"/>
      </g>
      <g transform="translate(720 720)">
        <rect id="Rectangle_1609-29" data-name="Rectangle 1609" width="90" height="90" fill="#e6e6e6"/>
        <rect id="Rectangle_1611-29" data-name="Rectangle 1611" width="90" height="90" transform="translate(90 90)" fill="#e6e6e6"/>
        <rect id="Rectangle_1610-29" data-name="Rectangle 1610" width="90" height="90" transform="translate(90)" fill="gray"/>
        <rect id="Rectangle_1612-29" data-name="Rectangle 1612" width="90" height="90" transform="translate(0 90)" fill="gray"/>
      </g>
      <g transform="translate(900 720)">
        <rect id="Rectangle_1609-30" data-name="Rectangle 1609" width="90" height="90" fill="#e6e6e6"/>
        <rect id="Rectangle_1611-30" data-name="Rectangle 1611" width="90" height="90" transform="translate(90 90)" fill="#e6e6e6"/>
        <rect id="Rectangle_1610-30" data-name="Rectangle 1610" width="90" height="90" transform="translate(90)" fill="gray"/>
        <rect id="Rectangle_1612-30" data-name="Rectangle 1612" width="90" height="90" transform="translate(0 90)" fill="gray"/>
      </g>
      <g transform="translate(0 900)">
        <rect id="Rectangle_1609-31" data-name="Rectangle 1609" width="90" height="90" fill="#e6e6e6"/>
        <rect id="Rectangle_1611-31" data-name="Rectangle 1611" width="90" height="90" transform="translate(90 90)" fill="#e6e6e6"/>
        <rect id="Rectangle_1610-31" data-name="Rectangle 1610" width="90" height="90" transform="translate(90)" fill="gray"/>
        <rect id="Rectangle_1612-31" data-name="Rectangle 1612" width="90" height="90" transform="translate(0 90)" fill="gray"/>
      </g>
      <g transform="translate(180 900)">
        <rect id="Rectangle_1609-32" data-name="Rectangle 1609" width="90" height="90" fill="#e6e6e6"/>
        <rect id="Rectangle_1611-32" data-name="Rectangle 1611" width="90" height="90" transform="translate(90 90)" fill="#e6e6e6"/>
        <rect id="Rectangle_1610-32" data-name="Rectangle 1610" width="90" height="90" transform="translate(90)" fill="gray"/>
        <rect id="Rectangle_1612-32" data-name="Rectangle 1612" width="90" height="90" transform="translate(0 90)" fill="gray"/>
      </g>
      <g transform="translate(360 900)">
        <rect id="Rectangle_1609-33" data-name="Rectangle 1609" width="90" height="90" fill="#e6e6e6"/>
        <rect id="Rectangle_1611-33" data-name="Rectangle 1611" width="90" height="90" transform="translate(90 90)" fill="#e6e6e6"/>
        <rect id="Rectangle_1610-33" data-name="Rectangle 1610" width="90" height="90" transform="translate(90)" fill="gray"/>
        <rect id="Rectangle_1612-33" data-name="Rectangle 1612" width="90" height="90" transform="translate(0 90)" fill="gray"/>
      </g>
      <g transform="translate(540 900)">
        <rect id="Rectangle_1609-34" data-name="Rectangle 1609" width="90" height="90" fill="#e6e6e6"/>
        <rect id="Rectangle_1611-34" data-name="Rectangle 1611" width="90" height="90" transform="translate(90 90)" fill="#e6e6e6"/>
        <rect id="Rectangle_1610-34" data-name="Rectangle 1610" width="90" height="90" transform="translate(90)" fill="gray"/>
        <rect id="Rectangle_1612-34" data-name="Rectangle 1612" width="90" height="90" transform="translate(0 90)" fill="gray"/>
      </g>
      <g transform="translate(720 900)">
        <rect id="Rectangle_1609-35" data-name="Rectangle 1609" width="90" height="90" fill="#e6e6e6"/>
        <rect id="Rectangle_1611-35" data-name="Rectangle 1611" width="90" height="90" transform="translate(90 90)" fill="#e6e6e6"/>
        <rect id="Rectangle_1610-35" data-name="Rectangle 1610" width="90" height="90" transform="translate(90)" fill="gray"/>
        <rect id="Rectangle_1612-35" data-name="Rectangle 1612" width="90" height="90" transform="translate(0 90)" fill="gray"/>
      </g>
      <g transform="translate(900 900)">
        <rect id="Rectangle_1609-36" data-name="Rectangle 1609" width="90" height="90" fill="#e6e6e6"/>
        <rect id="Rectangle_1611-36" data-name="Rectangle 1611" width="90" height="90" transform="translate(90 90)" fill="#e6e6e6"/>
        <rect id="Rectangle_1610-36" data-name="Rectangle 1610" width="90" height="90" transform="translate(90)" fill="gray"/>
        <rect id="Rectangle_1612-36" data-name="Rectangle 1612" width="90" height="90" transform="translate(0 90)" fill="gray"/>
      </g>
    </g>
    <g id="Mask_Group_4" data-name="Mask Group 4" clip-path="url(#clip-path-2)">
      <g id="Repeat_Grid_2" data-name="Repeat Grid 2" clip-path="url(#clip-path)">
        <g>
          <rect id="Rectangle_1609-37" data-name="Rectangle 1609" width="90" height="90" fill="#fff"/>
          <rect id="Rectangle_1611-37" data-name="Rectangle 1611" width="90" height="90" transform="translate(90 90)" fill="#fff"/>
          <rect id="Rectangle_1610-37" data-name="Rectangle 1610" width="90" height="90" transform="translate(90)"/>
          <rect id="Rectangle_1612-37" data-name="Rectangle 1612" width="90" height="90" transform="translate(0 90)"/>
        </g>
        <g transform="translate(180)">
          <rect id="Rectangle_1609-38" data-name="Rectangle 1609" width="90" height="90" fill="#fff"/>
          <rect id="Rectangle_1611-38" data-name="Rectangle 1611" width="90" height="90" transform="translate(90 90)" fill="#fff"/>
          <rect id="Rectangle_1610-38" data-name="Rectangle 1610" width="90" height="90" transform="translate(90)"/>
          <rect id="Rectangle_1612-38" data-name="Rectangle 1612" width="90" height="90" transform="translate(0 90)"/>
        </g>
        <g transform="translate(360)">
          <rect id="Rectangle_1609-39" data-name="Rectangle 1609" width="90" height="90" fill="#fff"/>
          <rect id="Rectangle_1611-39" data-name="Rectangle 1611" width="90" height="90" transform="translate(90 90)" fill="#fff"/>
          <rect id="Rectangle_1610-39" data-name="Rectangle 1610" width="90" height="90" transform="translate(90)"/>
          <rect id="Rectangle_1612-39" data-name="Rectangle 1612" width="90" height="90" transform="translate(0 90)"/>
        </g>
        <g transform="translate(540)">
          <rect id="Rectangle_1609-40" data-name="Rectangle 1609" width="90" height="90" fill="#fff"/>
          <rect id="Rectangle_1611-40" data-name="Rectangle 1611" width="90" height="90" transform="translate(90 90)" fill="#fff"/>
          <rect id="Rectangle_1610-40" data-name="Rectangle 1610" width="90" height="90" transform="translate(90)"/>
          <rect id="Rectangle_1612-40" data-name="Rectangle 1612" width="90" height="90" transform="translate(0 90)"/>
        </g>
        <g transform="translate(720)">
          <rect id="Rectangle_1609-41" data-name="Rectangle 1609" width="90" height="90" fill="#fff"/>
          <rect id="Rectangle_1611-41" data-name="Rectangle 1611" width="90" height="90" transform="translate(90 90)" fill="#fff"/>
          <rect id="Rectangle_1610-41" data-name="Rectangle 1610" width="90" height="90" transform="translate(90)"/>
          <rect id="Rectangle_1612-41" data-name="Rectangle 1612" width="90" height="90" transform="translate(0 90)"/>
        </g>
        <g transform="translate(900)">
          <rect id="Rectangle_1609-42" data-name="Rectangle 1609" width="90" height="90" fill="#fff"/>
          <rect id="Rectangle_1611-42" data-name="Rectangle 1611" width="90" height="90" transform="translate(90 90)" fill="#fff"/>
          <rect id="Rectangle_1610-42" data-name="Rectangle 1610" width="90" height="90" transform="translate(90)"/>
          <rect id="Rectangle_1612-42" data-name="Rectangle 1612" width="90" height="90" transform="translate(0 90)"/>
        </g>
        <g transform="translate(0 180)">
          <rect id="Rectangle_1609-43" data-name="Rectangle 1609" width="90" height="90" fill="#fff"/>
          <rect id="Rectangle_1611-43" data-name="Rectangle 1611" width="90" height="90" transform="translate(90 90)" fill="#fff"/>
          <rect id="Rectangle_1610-43" data-name="Rectangle 1610" width="90" height="90" transform="translate(90)"/>
          <rect id="Rectangle_1612-43" data-name="Rectangle 1612" width="90" height="90" transform="translate(0 90)"/>
        </g>
        <g transform="translate(180 180)">
          <rect id="Rectangle_1609-44" data-name="Rectangle 1609" width="90" height="90" fill="#fff"/>
          <rect id="Rectangle_1611-44" data-name="Rectangle 1611" width="90" height="90" transform="translate(90 90)" fill="#fff"/>
          <rect id="Rectangle_1610-44" data-name="Rectangle 1610" width="90" height="90" transform="translate(90)"/>
          <rect id="Rectangle_1612-44" data-name="Rectangle 1612" width="90" height="90" transform="translate(0 90)"/>
        </g>
        <g transform="translate(360 180)">
          <rect id="Rectangle_1609-45" data-name="Rectangle 1609" width="90" height="90" fill="#fff"/>
          <rect id="Rectangle_1611-45" data-name="Rectangle 1611" width="90" height="90" transform="translate(90 90)" fill="#fff"/>
          <rect id="Rectangle_1610-45" data-name="Rectangle 1610" width="90" height="90" transform="translate(90)"/>
          <rect id="Rectangle_1612-45" data-name="Rectangle 1612" width="90" height="90" transform="translate(0 90)"/>
        </g>
        <g transform="translate(540 180)">
          <rect id="Rectangle_1609-46" data-name="Rectangle 1609" width="90" height="90" fill="#fff"/>
          <rect id="Rectangle_1611-46" data-name="Rectangle 1611" width="90" height="90" transform="translate(90 90)" fill="#fff"/>
          <rect id="Rectangle_1610-46" data-name="Rectangle 1610" width="90" height="90" transform="translate(90)"/>
          <rect id="Rectangle_1612-46" data-name="Rectangle 1612" width="90" height="90" transform="translate(0 90)"/>
        </g>
        <g transform="translate(720 180)">
          <rect id="Rectangle_1609-47" data-name="Rectangle 1609" width="90" height="90" fill="#fff"/>
          <rect id="Rectangle_1611-47" data-name="Rectangle 1611" width="90" height="90" transform="translate(90 90)" fill="#fff"/>
          <rect id="Rectangle_1610-47" data-name="Rectangle 1610" width="90" height="90" transform="translate(90)"/>
          <rect id="Rectangle_1612-47" data-name="Rectangle 1612" width="90" height="90" transform="translate(0 90)"/>
        </g>
        <g transform="translate(900 180)">
          <rect id="Rectangle_1609-48" data-name="Rectangle 1609" width="90" height="90" fill="#fff"/>
          <rect id="Rectangle_1611-48" data-name="Rectangle 1611" width="90" height="90" transform="translate(90 90)" fill="#fff"/>
          <rect id="Rectangle_1610-48" data-name="Rectangle 1610" width="90" height="90" transform="translate(90)"/>
          <rect id="Rectangle_1612-48" data-name="Rectangle 1612" width="90" height="90" transform="translate(0 90)"/>
        </g>
        <g transform="translate(0 360)">
          <rect id="Rectangle_1609-49" data-name="Rectangle 1609" width="90" height="90" fill="#fff"/>
          <rect id="Rectangle_1611-49" data-name="Rectangle 1611" width="90" height="90" transform="translate(90 90)" fill="#fff"/>
          <rect id="Rectangle_1610-49" data-name="Rectangle 1610" width="90" height="90" transform="translate(90)"/>
          <rect id="Rectangle_1612-49" data-name="Rectangle 1612" width="90" height="90" transform="translate(0 90)"/>
        </g>
        <g transform="translate(180 360)">
          <rect id="Rectangle_1609-50" data-name="Rectangle 1609" width="90" height="90" fill="#fff"/>
          <rect id="Rectangle_1611-50" data-name="Rectangle 1611" width="90" height="90" transform="translate(90 90)" fill="#fff"/>
          <rect id="Rectangle_1610-50" data-name="Rectangle 1610" width="90" height="90" transform="translate(90)"/>
          <rect id="Rectangle_1612-50" data-name="Rectangle 1612" width="90" height="90" transform="translate(0 90)"/>
        </g>
        <g transform="translate(360 360)">
          <rect id="Rectangle_1609-51" data-name="Rectangle 1609" width="90" height="90" fill="#fff"/>
          <rect id="Rectangle_1611-51" data-name="Rectangle 1611" width="90" height="90" transform="translate(90 90)" fill="#fff"/>
          <rect id="Rectangle_1610-51" data-name="Rectangle 1610" width="90" height="90" transform="translate(90)"/>
          <rect id="Rectangle_1612-51" data-name="Rectangle 1612" width="90" height="90" transform="translate(0 90)"/>
        </g>
        <g transform="translate(540 360)">
          <rect id="Rectangle_1609-52" data-name="Rectangle 1609" width="90" height="90" fill="#fff"/>
          <rect id="Rectangle_1611-52" data-name="Rectangle 1611" width="90" height="90" transform="translate(90 90)" fill="#fff"/>
          <rect id="Rectangle_1610-52" data-name="Rectangle 1610" width="90" height="90" transform="translate(90)"/>
          <rect id="Rectangle_1612-52" data-name="Rectangle 1612" width="90" height="90" transform="translate(0 90)"/>
        </g>
        <g transform="translate(720 360)">
          <rect id="Rectangle_1609-53" data-name="Rectangle 1609" width="90" height="90" fill="#fff"/>
          <rect id="Rectangle_1611-53" data-name="Rectangle 1611" width="90" height="90" transform="translate(90 90)" fill="#fff"/>
          <rect id="Rectangle_1610-53" data-name="Rectangle 1610" width="90" height="90" transform="translate(90)"/>
          <rect id="Rectangle_1612-53" data-name="Rectangle 1612" width="90" height="90" transform="translate(0 90)"/>
        </g>
        <g transform="translate(900 360)">
          <rect id="Rectangle_1609-54" data-name="Rectangle 1609" width="90" height="90" fill="#fff"/>
          <rect id="Rectangle_1611-54" data-name="Rectangle 1611" width="90" height="90" transform="translate(90 90)" fill="#fff"/>
          <rect id="Rectangle_1610-54" data-name="Rectangle 1610" width="90" height="90" transform="translate(90)"/>
          <rect id="Rectangle_1612-54" data-name="Rectangle 1612" width="90" height="90" transform="translate(0 90)"/>
        </g>
        <g transform="translate(0 540)">
          <rect id="Rectangle_1609-55" data-name="Rectangle 1609" width="90" height="90" fill="#fff"/>
          <rect id="Rectangle_1611-55" data-name="Rectangle 1611" width="90" height="90" transform="translate(90 90)" fill="#fff"/>
          <rect id="Rectangle_1610-55" data-name="Rectangle 1610" width="90" height="90" transform="translate(90)"/>
          <rect id="Rectangle_1612-55" data-name="Rectangle 1612" width="90" height="90" transform="translate(0 90)"/>
        </g>
        <g transform="translate(180 540)">
          <rect id="Rectangle_1609-56" data-name="Rectangle 1609" width="90" height="90" fill="#fff"/>
          <rect id="Rectangle_1611-56" data-name="Rectangle 1611" width="90" height="90" transform="translate(90 90)" fill="#fff"/>
          <rect id="Rectangle_1610-56" data-name="Rectangle 1610" width="90" height="90" transform="translate(90)"/>
          <rect id="Rectangle_1612-56" data-name="Rectangle 1612" width="90" height="90" transform="translate(0 90)"/>
        </g>
        <g transform="translate(360 540)">
          <rect id="Rectangle_1609-57" data-name="Rectangle 1609" width="90" height="90" fill="#fff"/>
          <rect id="Rectangle_1611-57" data-name="Rectangle 1611" width="90" height="90" transform="translate(90 90)" fill="#fff"/>
          <rect id="Rectangle_1610-57" data-name="Rectangle 1610" width="90" height="90" transform="translate(90)"/>
          <rect id="Rectangle_1612-57" data-name="Rectangle 1612" width="90" height="90" transform="translate(0 90)"/>
        </g>
        <g transform="translate(540 540)">
          <rect id="Rectangle_1609-58" data-name="Rectangle 1609" width="90" height="90" fill="#fff"/>
          <rect id="Rectangle_1611-58" data-name="Rectangle 1611" width="90" height="90" transform="translate(90 90)" fill="#fff"/>
          <rect id="Rectangle_1610-58" data-name="Rectangle 1610" width="90" height="90" transform="translate(90)"/>
          <rect id="Rectangle_1612-58" data-name="Rectangle 1612" width="90" height="90" transform="translate(0 90)"/>
        </g>
        <g transform="translate(720 540)">
          <rect id="Rectangle_1609-59" data-name="Rectangle 1609" width="90" height="90" fill="#fff"/>
          <rect id="Rectangle_1611-59" data-name="Rectangle 1611" width="90" height="90" transform="translate(90 90)" fill="#fff"/>
          <rect id="Rectangle_1610-59" data-name="Rectangle 1610" width="90" height="90" transform="translate(90)"/>
          <rect id="Rectangle_1612-59" data-name="Rectangle 1612" width="90" height="90" transform="translate(0 90)"/>
        </g>
        <g transform="translate(900 540)">
          <rect id="Rectangle_1609-60" data-name="Rectangle 1609" width="90" height="90" fill="#fff"/>
          <rect id="Rectangle_1611-60" data-name="Rectangle 1611" width="90" height="90" transform="translate(90 90)" fill="#fff"/>
          <rect id="Rectangle_1610-60" data-name="Rectangle 1610" width="90" height="90" transform="translate(90)"/>
          <rect id="Rectangle_1612-60" data-name="Rectangle 1612" width="90" height="90" transform="translate(0 90)"/>
        </g>
        <g transform="translate(0 720)">
          <rect id="Rectangle_1609-61" data-name="Rectangle 1609" width="90" height="90" fill="#fff"/>
          <rect id="Rectangle_1611-61" data-name="Rectangle 1611" width="90" height="90" transform="translate(90 90)" fill="#fff"/>
          <rect id="Rectangle_1610-61" data-name="Rectangle 1610" width="90" height="90" transform="translate(90)"/>
          <rect id="Rectangle_1612-61" data-name="Rectangle 1612" width="90" height="90" transform="translate(0 90)"/>
        </g>
        <g transform="translate(180 720)">
          <rect id="Rectangle_1609-62" data-name="Rectangle 1609" width="90" height="90" fill="#fff"/>
          <rect id="Rectangle_1611-62" data-name="Rectangle 1611" width="90" height="90" transform="translate(90 90)" fill="#fff"/>
          <rect id="Rectangle_1610-62" data-name="Rectangle 1610" width="90" height="90" transform="translate(90)"/>
          <rect id="Rectangle_1612-62" data-name="Rectangle 1612" width="90" height="90" transform="translate(0 90)"/>
        </g>
        <g transform="translate(360 720)">
          <rect id="Rectangle_1609-63" data-name="Rectangle 1609" width="90" height="90" fill="#fff"/>
          <rect id="Rectangle_1611-63" data-name="Rectangle 1611" width="90" height="90" transform="translate(90 90)" fill="#fff"/>
          <rect id="Rectangle_1610-63" data-name="Rectangle 1610" width="90" height="90" transform="translate(90)"/>
          <rect id="Rectangle_1612-63" data-name="Rectangle 1612" width="90" height="90" transform="translate(0 90)"/>
        </g>
        <g transform="translate(540 720)">
          <rect id="Rectangle_1609-64" data-name="Rectangle 1609" width="90" height="90" fill="#fff"/>
          <rect id="Rectangle_1611-64" data-name="Rectangle 1611" width="90" height="90" transform="translate(90 90)" fill="#fff"/>
          <rect id="Rectangle_1610-64" data-name="Rectangle 1610" width="90" height="90" transform="translate(90)"/>
          <rect id="Rectangle_1612-64" data-name="Rectangle 1612" width="90" height="90" transform="translate(0 90)"/>
        </g>
        <g transform="translate(720 720)">
          <rect id="Rectangle_1609-65" data-name="Rectangle 1609" width="90" height="90" fill="#fff"/>
          <rect id="Rectangle_1611-65" data-name="Rectangle 1611" width="90" height="90" transform="translate(90 90)" fill="#fff"/>
          <rect id="Rectangle_1610-65" data-name="Rectangle 1610" width="90" height="90" transform="translate(90)"/>
          <rect id="Rectangle_1612-65" data-name="Rectangle 1612" width="90" height="90" transform="translate(0 90)"/>
        </g>
        <g transform="translate(900 720)">
          <rect id="Rectangle_1609-66" data-name="Rectangle 1609" width="90" height="90" fill="#fff"/>
          <rect id="Rectangle_1611-66" data-name="Rectangle 1611" width="90" height="90" transform="translate(90 90)" fill="#fff"/>
          <rect id="Rectangle_1610-66" data-name="Rectangle 1610" width="90" height="90" transform="translate(90)"/>
          <rect id="Rectangle_1612-66" data-name="Rectangle 1612" width="90" height="90" transform="translate(0 90)"/>
        </g>
        <g transform="translate(0 900)">
          <rect id="Rectangle_1609-67" data-name="Rectangle 1609" width="90" height="90" fill="#fff"/>
          <rect id="Rectangle_1611-67" data-name="Rectangle 1611" width="90" height="90" transform="translate(90 90)" fill="#fff"/>
          <rect id="Rectangle_1610-67" data-name="Rectangle 1610" width="90" height="90" transform="translate(90)"/>
          <rect id="Rectangle_1612-67" data-name="Rectangle 1612" width="90" height="90" transform="translate(0 90)"/>
        </g>
        <g transform="translate(180 900)">
          <rect id="Rectangle_1609-68" data-name="Rectangle 1609" width="90" height="90" fill="#fff"/>
          <rect id="Rectangle_1611-68" data-name="Rectangle 1611" width="90" height="90" transform="translate(90 90)" fill="#fff"/>
          <rect id="Rectangle_1610-68" data-name="Rectangle 1610" width="90" height="90" transform="translate(90)"/>
          <rect id="Rectangle_1612-68" data-name="Rectangle 1612" width="90" height="90" transform="translate(0 90)"/>
        </g>
        <g transform="translate(360 900)">
          <rect id="Rectangle_1609-69" data-name="Rectangle 1609" width="90" height="90" fill="#fff"/>
          <rect id="Rectangle_1611-69" data-name="Rectangle 1611" width="90" height="90" transform="translate(90 90)" fill="#fff"/>
          <rect id="Rectangle_1610-69" data-name="Rectangle 1610" width="90" height="90" transform="translate(90)"/>
          <rect id="Rectangle_1612-69" data-name="Rectangle 1612" width="90" height="90" transform="translate(0 90)"/>
        </g>
        <g transform="translate(540 900)">
          <rect id="Rectangle_1609-70" data-name="Rectangle 1609" width="90" height="90" fill="#fff"/>
          <rect id="Rectangle_1611-70" data-name="Rectangle 1611" width="90" height="90" transform="translate(90 90)" fill="#fff"/>
          <rect id="Rectangle_1610-70" data-name="Rectangle 1610" width="90" height="90" transform="translate(90)"/>
          <rect id="Rectangle_1612-70" data-name="Rectangle 1612" width="90" height="90" transform="translate(0 90)"/>
        </g>
        <g transform="translate(720 900)">
          <rect id="Rectangle_1609-71" data-name="Rectangle 1609" width="90" height="90" fill="#fff"/>
          <rect id="Rectangle_1611-71" data-name="Rectangle 1611" width="90" height="90" transform="translate(90 90)" fill="#fff"/>
          <rect id="Rectangle_1610-71" data-name="Rectangle 1610" width="90" height="90" transform="translate(90)"/>
          <rect id="Rectangle_1612-71" data-name="Rectangle 1612" width="90" height="90" transform="translate(0 90)"/>
        </g>
        <g transform="translate(900 900)">
          <rect id="Rectangle_1609-72" data-name="Rectangle 1609" width="90" height="90" fill="#fff"/>
          <rect id="Rectangle_1611-72" data-name="Rectangle 1611" width="90" height="90" transform="translate(90 90)" fill="#fff"/>
          <rect id="Rectangle_1610-72" data-name="Rectangle 1610" width="90" height="90" transform="translate(90)"/>
          <rect id="Rectangle_1612-72" data-name="Rectangle 1612" width="90" height="90" transform="translate(0 90)"/>
        </g>
      </g>
    </g>
  </g>
</svg>
