<svg xmlns="http://www.w3.org/2000/svg" xmlns:xlink="http://www.w3.org/1999/xlink" width="1080" height="1080" viewBox="0 0 1080 1080">
  <defs>
    <clipPath id="clip-stencil-wob">
      <rect width="1080" height="1080"/>
    </clipPath>
  </defs>
  <g id="stencil-wob" clip-path="url(#clip-stencil-wob)">
    <rect width="1080" height="1080"/>
    <g id="Group_8" data-name="Group 8" transform="translate(89.998)">
      <path id="Union_4" data-name="Union 4" d="M-5038,19749v-180h630v180c0,99.41-141.028,180-315,180S-5038,19848.41-5038,19749Z" transform="translate(5128 -19029)" fill="#fff"/>
      <path id="Union_3" data-name="Union 3" d="M-5038,19749v-180h630v180c0,99.41-141.028,180-315,180S-5038,19848.41-5038,19749Z" transform="translate(5128 -19209)"/>
      <ellipse id="Ellipse_6" data-name="Ellipse 6" cx="315" cy="180" rx="315" ry="180" transform="translate(90 180)" fill="#fff"/>
    </g>
    <path id="Rectangle_1577" data-name="Rectangle 1577" d="M90,0H360a90,90,0,0,1,90,90V450a90,90,0,0,1-90,90H0a0,0,0,0,1,0,0V90A90,90,0,0,1,90,0Z" transform="translate(495 405)" fill="#fff"/>
    <g id="Rectangle_1578" data-name="Rectangle 1578" transform="translate(585 765)" stroke="#707070" stroke-width="1">
      <rect width="90" height="90" stroke="none"/>
      <rect x="0.5" y="0.5" width="89" height="89" fill="none"/>
    </g>
    <path id="Rectangle_1580" data-name="Rectangle 1580" d="M0,0H270a0,0,0,0,1,0,0V0a90,90,0,0,1-90,90H0a0,0,0,0,1,0,0V0A0,0,0,0,1,0,0Z" transform="translate(585 585)"/>
    <rect id="Rectangle_1581" data-name="Rectangle 1581" width="450" height="90" transform="translate(495 405)"/>
    <circle id="Ellipse_9" data-name="Ellipse 9" cx="45" cy="45" r="45" transform="translate(765 765)"/>
  </g>
</svg>
